/* XPM */
static char * C:\Users\gaeta\Desktop\code\42\so_long\img\gas_xpm[] = {
"40 40 111 2",
"  	c #FFFFFF",
". 	c #D62722",
"+ 	c #CF201B",
"@ 	c #C81D16",
"# 	c #D32821",
"$ 	c #CD0000",
"% 	c #000000",
"& 	c #F8E5E3",
"* 	c #EEC6C3",
"= 	c #F8FEFC",
"- 	c #151515",
"; 	c #FDFFFE",
"> 	c #D3241F",
", 	c #BF140D",
"' 	c #FAFEFF",
") 	c #D52823",
"! 	c #F2B3B3",
"~ 	c #CA0000",
"{ 	c #FAFBF7",
"] 	c #D5211C",
"^ 	c #1D1D1B",
"/ 	c #DB4F4A",
"( 	c #DB1F1C",
"_ 	c #D4110C",
": 	c #F4E4DE",
"< 	c #FAA401",
"[ 	c #C51A13",
"} 	c #E0302A",
"| 	c #1A1A1A",
"1 	c #111111",
"2 	c #080808",
"3 	c #1F1F1F",
"4 	c #C1C1C1",
"5 	c #464646",
"6 	c #F4F4F4",
"7 	c #E0E0E0",
"8 	c #8D8D8D",
"9 	c #FDFBFF",
"0 	c #D6D6D6",
"a 	c #A9A9A9",
"b 	c #DB352B",
"c 	c #EDABA8",
"d 	c #9C9C9C",
"e 	c #C30000",
"f 	c #F79E00",
"g 	c #FFA400",
"h 	c #696969",
"i 	c #FFAC0A",
"j 	c #B8B8B8",
"k 	c #F0BCBA",
"l 	c #DF6269",
"m 	c #DE786D",
"n 	c #F6EDE6",
"o 	c #E6605D",
"p 	c #D44136",
"q 	c #EEEDEE",
"r 	c #E33137",
"s 	c #E3797D",
"t 	c #E3464C",
"u 	c #F4F9F0",
"v 	c #E13E3E",
"w 	c #292929",
"x 	c #929292",
"y 	c #D54F45",
"z 	c #E0857F",
"A 	c #575757",
"B 	c #808080",
"C 	c #F4D5D1",
"D 	c #DF8D8B",
"E 	c #393939",
"F 	c #D2423C",
"G 	c #F5CB78",
"H 	c #F5D6A2",
"I 	c #FCF5E1",
"J 	c #E41F14",
"K 	c #5D5D5D",
"L 	c #FBEED1",
"M 	c #F7F8DE",
"N 	c #EFBA50",
"O 	c #EDBE75",
"P 	c #FEE3C7",
"Q 	c #EC9300",
"R 	c #FDEED6",
"S 	c #F2BC56",
"T 	c #F5C896",
"U 	c #EEA20C",
"V 	c #F8C684",
"W 	c #F3D290",
"X 	c #DF988D",
"Y 	c #FCB96E",
"Z 	c #E2A5AA",
"` 	c #F6E4B8",
" .	c #F2D5E0",
"..	c #EFAF31",
"+.	c #FAD2CF",
"@.	c #252327",
"#.	c #011B10",
"$.	c #834542",
"%.	c #7D1F1C",
"&.	c #BD4E4A",
"*.	c #B0251C",
"=.	c #CF4750",
"-.	c #182018",
";.	c #101D20",
">.	c #6C201B",
",.	c #5D1F1A",
"'.	c #450B09",
").	c #421D15",
"!.	c #D07973",
"~.	c #E25044",
"{.	c #EA2127",
"                                                                                ",
"                                                                                ",
"                                                                                ",
"                                                                                ",
"                                                                                ",
"                                                                                ",
"                                              ; ; ; ; ; ; ; ; ;                 ",
"                                          * o / / / / / / / / o &               ",
"            7 d 0 ;                     6 v / ! k k k k k / . . C               ",
"          { : x 1 K 4 {                 ! > C           { ) . . C               ",
"          H T   7 K - A 0             6 F s ;           * . . . C               ",
"        { ..U u   6 x 1 - x 6         ! . ! 6 6 6 6 6 6 z . . . C               ",
"        { N ..{     ; a 2 - K 8 q n Z F . ] _ _ _ _ _ _ > . . . C               ",
"          { {           j % | ,.D o . . . . . . . . . . . . . . C               ",
"                        { 5 ,.+ . . . . . . . . . . . . . . . . C               ",
"                        ; a # ) . . . . . . . . . . . . . . . . C               ",
"                          6 l > + . . . . . . . . . . . . + > . C               ",
"                          X . > @ + . . . . . . . . . . + @ # . C               ",
"                          / . . > @ + . . . . . . . . + @ # . . C               ",
"                          / . . . # > > > > > > > > # + # . . . *               ",
"                          / . . . . > [ @ @ @ @ @ @ @ . . . . > *               ",
"                          / . . . . > @ # . . . . > @ . . . . > *               ",
"                          / . . . . > @ # . . . . > @ . . . . > *               ",
"                          / . . . . > @ # . . . . > @ . . . . + *               ",
"                          / . . . . > @ # . . . . > @ . . . . + *               ",
"                          / . . . . > @ # . . . . > @ . . . . + *               ",
"                          / . . . . > @ > > > > > + @ . . . . + *               ",
"                          / . . . . # @ @ @ @ @ @ @ + . . . > + *               ",
"                          / . . . + + . . . . . . . . + + . + + *               ",
"                          / . . + @ > . . . . . . . . > @ + + + *               ",
"                          / . > @ > . . . . . . . . . . > @ + + *               ",
"                        ; / . > > . . . . . . . . . . > + + + + *               ",
"                        ; / . . . . . . . . > > > + + + + + + + *               ",
"                          z ) ) ) ) ) ) ) ) ) ) ) ) ) ) ) ) ) b :               ",
"                          ; { { { { { { { { { { { { { { { { { 9                 ",
"                                                                                ",
"                                                                                ",
"                                                                                ",
"                                                                                ",
"                                                                                "};
