/* XPM */
static char * C:\Users\gaeta\Desktop\code\42\so_long\img\helicopter_xpm[] = {
"40 40 218 2",
"  	c None",
". 	c #FFFFFF",
"+ 	c #E9E9E9",
"@ 	c #ECECEC",
"# 	c #999999",
"$ 	c #E6E6E6",
"% 	c #979797",
"& 	c #F6F6F6",
"* 	c #F8F8F8",
"= 	c #9A9A9A",
"- 	c #FAFAFA",
"; 	c #959595",
"> 	c #F7F7F7",
", 	c #9C9C9C",
"' 	c #FEFEFE",
") 	c #9C7D6C",
"! 	c #946D4F",
"~ 	c #EBE8E6",
"{ 	c #9F8059",
"] 	c #947047",
"^ 	c #DBD7D4",
"/ 	c #D7CDBB",
"( 	c #D3BC8B",
"_ 	c #D3BC8A",
": 	c #CABCA6",
"< 	c #C8B694",
"[ 	c #9E937F",
"} 	c #8A857B",
"| 	c #CDB88C",
"1 	c #F7F7F8",
"2 	c #C4AB7B",
"3 	c #82796D",
"4 	c #706E6C",
"5 	c #A98251",
"6 	c #ECEDED",
"7 	c #8F6127",
"8 	c #686664",
"9 	c #6E6F6F",
"0 	c #966832",
"a 	c #EBEAE9",
"b 	c #976932",
"c 	c #707070",
"d 	c #797979",
"e 	c #8C6231",
"f 	c #E8E4E2",
"g 	c #EBEBEB",
"h 	c #D8D9D9",
"i 	c #BC9E6E",
"j 	c #757575",
"k 	c #A18156",
"l 	c #D0CDCB",
"m 	c #F0F0F0",
"n 	c #FCFCFC",
"o 	c #9F9F9F",
"p 	c #696969",
"q 	c #C8B287",
"r 	c #C0AC85",
"s 	c #C1AD86",
"t 	c #C8B183",
"u 	c #969696",
"v 	c #FBFBFB",
"w 	c #555555",
"x 	c #BFAB81",
"y 	c #E0C793",
"z 	c #C1A270",
"A 	c #99784C",
"B 	c #4C4C4C",
"C 	c #D3D3D3",
"D 	c #A39C97",
"E 	c #CCC0B2",
"F 	c #6A6B6B",
"G 	c #746B5A",
"H 	c #C3AE82",
"I 	c #9E7A4C",
"J 	c #574536",
"K 	c #6C6C6C",
"L 	c #B2A69D",
"M 	c #ABA39B",
"N 	c #C3C3C2",
"O 	c #EFEBE6",
"P 	c #E0D5C2",
"Q 	c #D9C7A4",
"R 	c #A88250",
"S 	c #966A36",
"T 	c #9E7C52",
"U 	c #8B7F68",
"V 	c #D3B988",
"W 	c #4F4A43",
"X 	c #3F4040",
"Y 	c #8F6431",
"Z 	c #705C4B",
"` 	c #866139",
" .	c #9A7243",
"..	c #DAC08D",
"+.	c #D6C299",
"@.	c #DCCFB8",
"#.	c #E6E1D7",
"$.	c #D7C6A5",
"%.	c #E1C894",
"&.	c #9D713C",
"*.	c #93693B",
"=.	c #AD8B5B",
"-.	c #AA9770",
";.	c #A9926A",
">.	c #52443A",
",.	c #4E443D",
"'.	c #835C31",
").	c #71512F",
"!.	c #8D622F",
"~.	c #91693E",
"{.	c #C7A978",
"].	c #D5BB89",
"^.	c #D0BA8B",
"/.	c #C8B284",
"(.	c #BDA376",
"_.	c #8B6233",
":.	c #896239",
"<.	c #AC8E60",
"[.	c #CEB788",
"}.	c #716855",
"|.	c #D4BA89",
"1.	c #C2A474",
"2.	c #665949",
"3.	c #916B40",
"4.	c #835B2C",
"5.	c #896238",
"6.	c #BDA477",
"7.	c #CCB586",
"8.	c #CCB686",
"9.	c #B39465",
"0.	c #E3E1E0",
"a.	c #DBDCDC",
"b.	c #E8E9E9",
"c.	c #6C604D",
"d.	c #696A6A",
"e.	c #DCC390",
"f.	c #6E6B67",
"g.	c #756B5A",
"h.	c #D7D7D6",
"i.	c #DFDFDF",
"j.	c #E4E5E5",
"k.	c #FDFDFD",
"l.	c #989898",
"m.	c #B7AFAA",
"n.	c #6D6D6D",
"o.	c #C5A877",
"p.	c #6F6C68",
"q.	c #C4BBAC",
"r.	c #EEEEEE",
"s.	c #616161",
"t.	c #946731",
"u.	c #A17744",
"v.	c #5E5C5B",
"w.	c #E1E1E1",
"x.	c #9E9E9E",
"y.	c #DEDEDE",
"z.	c #F2F2F2",
"A.	c #A39082",
"B.	c #876138",
"C.	c #886138",
"D.	c #9D836D",
"E.	c #A1A1A1",
"F.	c #CEC0AF",
"G.	c #997348",
"H.	c #9C784E",
"I.	c #B5A08D",
"J.	c #9D9D9D",
"K.	c #E9E8E5",
"L.	c #D0B888",
"M.	c #D3BD8E",
"N.	c #DFDCD6",
"O.	c #A0A0A0",
"P.	c #D5D5D6",
"Q.	c #D4BD8C",
"R.	c #D3BC8D",
"S.	c #CDCCCA",
"T.	c #DBDBDB",
"U.	c #C9B386",
"V.	c #C3AA7D",
"W.	c #CFCECE",
"X.	c #A18868",
"Y.	c #916634",
"Z.	c #906E4C",
"`.	c #8E6538",
" +	c #946E49",
".+	c #8D653A",
"++	c #A48974",
"@+	c #8B6B4C",
"#+	c #F1F0EE",
"$+	c #D5C29E",
"%+	c #CAB58A",
"&+	c #C9B181",
"*+	c #987C56",
"=+	c #A4865F",
"-+	c #A48A70",
";+	c #E8E4E0",
">+	c #EEEBE8",
",+	c #D8D0C3",
"'+	c #D3CCC1",
")+	c #D1BD95",
"!+	c #BFAB83",
"~+	c #D7D0C3",
"{+	c #D5CEC1",
"]+	c #EAE6E1",
"^+	c #CBBCA1",
"/+	c #C7BAA0",
"(+	c #E7E7E7",
"_+	c #B4A78F",
":+	c #C6B89E",
"<+	c #D6D6D6",
"[+	c #8B7C68",
"}+	c #BFB19E",
"|+	c #E0E0E0",
"1+	c #A79F99",
"2+	c #C7BCB4",
"3+	c #D2D0CE",
"4+	c #E2DEDB",
"5+	c #F3F3F3",
". . . . . . . . . . . . . . . . . . . . . . . . . . . . . . . . . . . . . . . . ",
". . . . . . . . . . . . . . . . . . . . . . . . . . . . . . . . . . . . . . . . ",
". . . . . . + . . . . . . . . . . . . . . . . . . . . . . . . . . @ @ . . . . . ",
". . . . . . # $ . . . . . . . . . . . . . . . . . . . . . . . . + % & . . . . . ",
". . . . . . * = $ . . . . . . . . . . - * . . . . . . . . . . + ; & . . . . . . ",
". . . . . . . > , $ . . . . . . . . ' ) ! * . . . . . . . . + % & . . . . . . . ",
". . . . . . . . > # $ . . . . . . . ~ { ] ^ . . . . . . . + ; & . . . . . . . . ",
". . . . . . . . . > , $ . . . . . . / ( _ : . . . . . . + % & . . . . . . . . . ",
". . . . . . . . . . > # $ . . . . . < [ } | 1 . . . . + ; & . . . . . . . . . . ",
". . . . . . . . . . . > , $ . . . . 2 3 4 5 6 . . . + % & . . . . . . . . . . . ",
". . . . . . . . . . . . > # $ . . - 7 8 9 0 a . . + ; & . . . . . . . . . . . . ",
". . . . . . . . . . . . . > , $ . 6 b c d e f . g % & . . . . . . . . . . . . . ",
". . . . . . . . . . . . . . > , $ h i c j k l m % & . . . . . . . . . . . . . . ",
". . . . . . . . . . . . . . . n o p q r s t p u & . . . . . . . . . . . . . . . ",
". . . . . . . . . . . . . . . . v w x y z A B m . . . . . . . . . . . . . . . . ",
". . . . . . . . . . . . . . C D E F G H I J K L M N . . . . . . . . . . . . . . ",
". . . . . . . . . . . O P Q R S T U V W X Y Z `  ...+.@.#.. . . . . . . . . . . ",
". . . . . . . . . . . $.y %.&.*.=.-.;.>.,.'.).!.~.{.y y ].* . . . . . . . . . . ",
". . . . . . . . . . ' ^./.(._.:.<.[.}.|.1.2.3.4.5.6.7.8.9.0.. . . . . . . . . . ",
". . . . . . . . . . . - - - g a.b.c.d.e.y f.g.h.i.j.- - - k.. . . . . . . . . . ",
". . . . . . . . . . . . . . . m l.m.n.o.y p.q.o $ . . . . . . . . . . . . . . . ",
". . . . . . . . . . . . . . m u & r.s.t.u.v.w.n x.y.. . . . . . . . . . . . . . ",
". . . . . . . . . . . . . m ; z.. . A.B.C.D.n . v E.y.. . . . . . . . . . . . . ",
". . . . . . . . . . . . m ; z.. . . F.G.H.I.. . . v J.y.. . . . . . . . . . . . ",
". . . . . . . . . . . m ; z.. . . . K.L.M.N.. . . . v O.y.. . . . . . . . . . . ",
". . . . . . . . . . m ; z.. . . . . P.Q.R.S.. . . . . v J.y.. . . . . . . . . . ",
". . . . . . . . . m ; z.. . . . . . T.U.V.W.. . . . . . v O.y.. . . . . . . . . ",
". . . . . . . . m ; z.. . . . . . . . X.Y.- . . . . . . . v J.y.. . . . . . . . ",
". . . . . . . m u z.. . . . . . . . . Z.`.- . . . . . . . . v O.y.. . . . . . . ",
". . . . . . m u z.. . . . . . . . . .  +.+- . . . . . . . . . v x.i.. . . . . . ",
". . . . . > l.z.. . . . . . . . . . ' ++@+n . . . . . . . . . . v E.z.. . . . . ",
". . . . . . . . . . . . . . . . #+$+%+&+*+=+-+;+. . . . . . . . . v . . . . . . ",
". . . . . . . . . . . . . . . . >+,+'+)+!+~+{+]+. . . . . . . . . . . . . . . . ",
". . . . . . . . . . . . . . . . . . * ^+/+. . . . . . . . . . . . . . . . . . . ",
". . . . . . . . . . . . . . . . . . (+_+:+. . . . . . . . . . . . . . . . . . . ",
". . . . . . . . . . . . . . . . . . <+[+}+. . . . . . . . . . . . . . . . . . . ",
". . . . . . . . . . . . . . . . . . |+1+2+. . . . . . . . . . . . . . . . . . . ",
". . . . . . . . . . . . . . . . . . (+3+4+. . . . . . . . . . . . . . . . . . . ",
". . . . . . . . . . . . . . . . . . 5+' . . . . . . . . . . . . . . . . . . . . ",
". . . . . . . . . . . . . . . . . . . . . . . . . . . . . . . . . . . . . . . . "};
