/* XPM */
static char * C:\Users\gaeta\Desktop\code\42\so_long\img\moto_xpm[] = {
"40 40 290 2",
"  	c None",
". 	c #FFFFFF",
"+ 	c #FAFAFA",
"@ 	c #FFFEFF",
"# 	c #FEFEFE",
"$ 	c #EDEDED",
"% 	c #E2E2E2",
"& 	c #FDFDFD",
"* 	c #FDFCFD",
"= 	c #FCFCFC",
"- 	c #D2D2D2",
"; 	c #B8B8B8",
"> 	c #FBFBFB",
", 	c #FCFBFB",
"' 	c #FEFDFD",
") 	c #FDFCFC",
"! 	c #F9F9F9",
"~ 	c #E3E3E3",
"{ 	c #CCCBCB",
"] 	c #F3F3F3",
"^ 	c #F8F8F8",
"/ 	c #F7F7F7",
"( 	c #F9F8F9",
"_ 	c #FAF9F9",
": 	c #FAF9FA",
"< 	c #EBEBEB",
"[ 	c #F6F6F6",
"} 	c #F5F5F5",
"| 	c #F4F4F4",
"1 	c #A09F9F",
"2 	c #E9E6E6",
"3 	c #F4F3F3",
"4 	c #F2F2F2",
"5 	c #ABABAB",
"6 	c #F0F0F0",
"7 	c #D3D3D3",
"8 	c #EFEEEF",
"9 	c #939393",
"0 	c #949090",
"a 	c #C9C8C8",
"b 	c #EEEEEE",
"c 	c #D7D7D7",
"d 	c #EFEFEF",
"e 	c #E1E1E1",
"f 	c #9E9E9E",
"g 	c #A1A1A1",
"h 	c #AAAAAA",
"i 	c #979797",
"j 	c #A5A5A5",
"k 	c #A6A6A6",
"l 	c #BFBFBF",
"m 	c #C2C2C2",
"n 	c #CCCCCC",
"o 	c #D9D9D9",
"p 	c #E0E0E0",
"q 	c #DBDBDB",
"r 	c #CACACA",
"s 	c #DCDCDC",
"t 	c #817D7D",
"u 	c #9C8989",
"v 	c #936465",
"w 	c #8B3A3B",
"x 	c #823A3B",
"y 	c #784E4E",
"z 	c #606060",
"A 	c #B3B3B3",
"B 	c #D8D8D8",
"C 	c #AFAFAF",
"D 	c #E9E9E9",
"E 	c #EAEAEA",
"F 	c #ECECEC",
"G 	c #F1F1F1",
"H 	c #BABABA",
"I 	c #C3C3C3",
"J 	c #C1C1C1",
"K 	c #797979",
"L 	c #2B2B2B",
"M 	c #665050",
"N 	c #6E3535",
"O 	c #7F3536",
"P 	c #6F3638",
"Q 	c #3B353A",
"R 	c #313035",
"S 	c #2D2C32",
"T 	c #444346",
"U 	c #969696",
"V 	c #929292",
"W 	c #9F9696",
"X 	c #AA8686",
"Y 	c #921B1C",
"Z 	c #9A1617",
"` 	c #9C1617",
" .	c #881415",
"..	c #801414",
"+.	c #775F60",
"@.	c #9B9B9B",
"#.	c #A3A3A3",
"$.	c #9C9C9C",
"%.	c #BDBCBD",
"&.	c #8E8E8E",
"*.	c #4B4B4B",
"=.	c #808080",
"-.	c #7C7C7C",
";.	c #4E4E4E",
">.	c #845252",
",.	c #C0B0B1",
"'.	c #938687",
").	c #8C8788",
"!.	c #3D3A3D",
"~.	c #2E2E32",
"{.	c #28272D",
"].	c #2F2E34",
"^.	c #312F36",
"/.	c #656567",
"(.	c #868687",
"_.	c #744C4C",
":.	c #901C1C",
"<.	c #961616",
"[.	c #991616",
"}.	c #9A1516",
"|.	c #901415",
"1.	c #673535",
"2.	c #644040",
"3.	c #4E4949",
"4.	c #9F9E9E",
"5.	c #A57D7D",
"6.	c #956B6B",
"7.	c #644344",
"8.	c #BFB9B9",
"9.	c #B99F9F",
"0.	c #AF9293",
"a.	c #BCA4A4",
"b.	c #D8D6D6",
"c.	c #DEDEDE",
"d.	c #3F3F3F",
"e.	c #292929",
"f.	c #2F2F2F",
"g.	c #2D2D2D",
"h.	c #414141",
"i.	c #822628",
"j.	c #403238",
"k.	c #343339",
"l.	c #302F35",
"m.	c #323037",
"n.	c #6C4A4A",
"o.	c #926666",
"p.	c #9B6D6D",
"q.	c #9F7272",
"r.	c #A27373",
"s.	c #A47676",
"t.	c #A47778",
"u.	c #986D6D",
"v.	c #7B7273",
"w.	c #838383",
"x.	c #737373",
"y.	c #4F4B4C",
"z.	c #A14F4F",
"A.	c #A06767",
"B.	c #8E4B4B",
"C.	c #947F7F",
"D.	c #8B1415",
"E.	c #981516",
"F.	c #991516",
"G.	c #7F2727",
"H.	c #3B3B3B",
"I.	c #383838",
"J.	c #272727",
"K.	c #404040",
"L.	c #832628",
"M.	c #3E343A",
"N.	c #333238",
"O.	c #343238",
"P.	c #313036",
"Q.	c #785C5D",
"R.	c #A58181",
"S.	c #AE8989",
"T.	c #B38F8F",
"U.	c #B59090",
"V.	c #B79292",
"W.	c #CAB9BA",
"X.	c #AC9797",
"Y.	c #817B7B",
"Z.	c #787879",
"`.	c #707070",
" +	c #4C4747",
".+	c #8B3433",
"++	c #701515",
"@+	c #610D0C",
"#+	c #8F7979",
"$+	c #891515",
"%+	c #981517",
"&+	c #961415",
"*+	c #7A2221",
"=+	c #353535",
"-+	c #525252",
";+	c #5C5C5C",
">+	c #323232",
",+	c #2C2C2C",
"'+	c #793636",
")+	c #BDB2B1",
"!+	c #A2A1A2",
"~+	c #797A7B",
"{+	c #3D3C40",
"]+	c #2F2F33",
"^+	c #26252C",
"/+	c #525255",
"(+	c #858586",
"_+	c #937C7C",
":+	c #851112",
"<+	c #951516",
"[+	c #9F4C4C",
"}+	c #E3E2E2",
"|+	c #B6AFAF",
"1+	c #693839",
"2+	c #5E3939",
"3+	c #6A6767",
"4+	c #949494",
"5+	c #94696A",
"6+	c #815D5C",
"7+	c #5B4041",
"8+	c #C2BABB",
"9+	c #B89C9C",
"0+	c #AC8C8C",
"a+	c #B89D9D",
"b+	c #C2BEBE",
"c+	c #C6C6C6",
"d+	c #E6E6E6",
"e+	c #E4E3E3",
"f+	c #C6BCBC",
"g+	c #AF9494",
"h+	c #764849",
"i+	c #3B3338",
"j+	c #2B2A2F",
"k+	c #49484B",
"l+	c #7F7F7F",
"m+	c #767676",
"n+	c #ACACAC",
"o+	c #938989",
"p+	c #895656",
"q+	c #8D1314",
"r+	c #991819",
"s+	c #9D1919",
"t+	c #A66C6B",
"u+	c #894242",
"v+	c #771213",
"w+	c #543131",
"x+	c #909090",
"y+	c #9D9D9D",
"z+	c #8B8B8B",
"A+	c #898989",
"B+	c #B4B4B4",
"C+	c #D4D4D4",
"D+	c #D5D5D5",
"E+	c #DDDDDD",
"F+	c #D1D1D1",
"G+	c #888888",
"H+	c #CBCACA",
"I+	c #BFBEBE",
"J+	c #969090",
"K+	c #C1B0B1",
"L+	c #956363",
"M+	c #801E1E",
"N+	c #792323",
"O+	c #816161",
"P+	c #626262",
"Q+	c #BCBCBC",
"R+	c #DADADA",
"S+	c #E7E7E7",
"T+	c #F1F0F0",
"U+	c #B0AFAF",
"V+	c #E8E8E8",
"W+	c #F2F1F2",
"X+	c #F2F1F1",
"Y+	c #908181",
"Z+	c #919191",
"`+	c #F7F6F7",
" @	c #F6F5F5",
".@	c #989898",
"+@	c #EDECEC",
"@@	c #EEEDED",
"#@	c #F5F4F4",
"$@	c #FBFAFA",
"%@	c #FBF9FA",
"&@	c #E4E4E4",
"*@	c #F9F8F8",
"=@	c #FFFEFE",
"-@	c #FEFDFE",
";@	c #FCFBFC",
">@	c #CECDCD",
",@	c #BAB9BA",
". . . . . . . . . . . . . . . . . . . . . . . . . . . . . . . . . . . . . . . . ",
". . . . . . . . . . . . . . . . . . . . . . . . . . . . . . . . . . . . . . . . ",
". . . . . . . . . . . . . . . . . . . . . . . . . . . . . . . . . . . . . . . . ",
". . . . . . . . . . . . . . . . . . . . . . . . . . . . . . . . . . . . . . . . ",
". . . . . . . . . . . . . . . . . . . . . . . . . . . . . . . . . . . . . . . . ",
". . . . . . . . . . . . . . . . . . . . . . . . . . . . . . . . . . . . . . . . ",
". . . . . . . . . . . . . . . . . . . . . . . . . . . . . . . . . . . . . . . . ",
". . . . . . . . . . . . . . . . . . . . . . . . . . . . . . . . . . . . . . . . ",
". . . . . . . . . . . . . . . . . . . . . . . . . . . . . . . . . . . . . . . . ",
". . . . . . . . . . . . . . . . . . . . . . . . . . . . . . . . . . . . . . . . ",
". . . . . . . . . . . . . . . . . . . . . . . . . + . . . . . . . . . . . . . . ",
". . . . . . . . . . . . . . . . . . . . . . . @ # $ % # # # # # . . . . . . . . ",
". . . . . . . . . . . . . . . . . . @ # # & * = - - ; > , > > = & # . . . . . . ",
". . . . . . . # ' & = ) = = * & * ) = , > + ! ! ~ { ] ^ ^ / ^ ! + > & # . . . . ",
". . . . . & = + + ! ( ^ ^ ! _ + : _ ! / < [ } | | 1 2 | ] ] 3 } [ ^ + = # . . . ",
". . . # > ! / } | ] ] ] | | [ [ [ [ } 4 5 6 7 8 $ 9 0 a b c d 6 4 | [ ^ > & . . ",
". > # > [ e f g h i j k l m n o p q r s t u v w x y z A B C D E F b G ] [ + # . ",
". p H I J K L M N O P Q R S T U V V W X Y Z ` Z  ...+.@.V #.$.f %.B p F 6 [ = . ",
"b &.*.=.-.;.>.,.'.).!.~.{.].^./.(._.:.<.[.}.` Z |.1.2.3.4.5.6.7.8.9.0.a.b.c.E . ",
"D d.e.f.g.h.i.j.k.k.l.m.{.].l.l.l.n.o.p.q.r.s.t.u.v.w.x.y.z.A.B.C.D.E.F.G.H.I.q ",
"D d.J.L g.K.L.M.N.O.l.P.{.].l.l.l.Q.R.S.T.U.V.W.X.Y.Z.`. +.+++@+#+$+%+&+*+=+f.7 ",
"D -+;+>+,+=+'+)+!+~+{+]+^+].l./+(+_+:+<+Z ` [+}+|+1+2+3+4+5+6+7+8+9+0+a+b+c+7 . ",
". p d+! ] F e+f+g+q.h+i+j+P.k+l+m+n+o+p+q+r+s+t+u+v+w+x+f y+z+A+B+C+D+< G ^ & . ",
". [ + > / 4 d F E D E+F+I &.G+D+c B H+I+J+K+L+M+N+O+P+Q+- C E < $ d 4 | ^ > # . ",
". . . & + / | 4 6 d d d c.R+s S+T+4 4 6 U+4 V+W+X+Y+Z+n d r 6 G ] } / ! = # . . ",
". . . . & > ! / [ } } } [ / / / / / / } E / `+[  @.@+@@@#@| } [ / ! > ) # . . . ",
". . . . . # & = $@+ : : + $@$@$@$@$@$@+ $@%@: _ &@H+8 *@^ ^ ! _ > = & @ . . . . ",
". . . . . . . =@# -@& & & ' ' & ' & & & * ) ) ;@n >@,@, , > ;@= ' # . . . . . . ",
". . . . . . . . . . . . . . . . . . . @ @ @ =@# -@W+c # -@# # . . . . . . . . . ",
". . . . . . . . . . . . . . . . . . . . . . . . . + . . . . . . . . . . . . . . ",
". . . . . . . . . . . . . . . . . . . . . . . . . . . . . . . . . . . . . . . . ",
". . . . . . . . . . . . . . . . . . . . . . . . . . . . . . . . . . . . . . . . ",
". . . . . . . . . . . . . . . . . . . . . . . . . . . . . . . . . . . . . . . . ",
". . . . . . . . . . . . . . . . . . . . . . . . . . . . . . . . . . . . . . . . ",
". . . . . . . . . . . . . . . . . . . . . . . . . . . . . . . . . . . . . . . . ",
". . . . . . . . . . . . . . . . . . . . . . . . . . . . . . . . . . . . . . . . ",
". . . . . . . . . . . . . . . . . . . . . . . . . . . . . . . . . . . . . . . . ",
". . . . . . . . . . . . . . . . . . . . . . . . . . . . . . . . . . . . . . . . ",
". . . . . . . . . . . . . . . . . . . . . . . . . . . . . . . . . . . . . . . . ",
". . . . . . . . . . . . . . . . . . . . . . . . . . . . . . . . . . . . . . . . "};
