/* XPM */
static char * C:\Users\gaeta\Desktop\code\42\so_long\img\player_xpm[] = {
"40 40 565 2",
"  	c None",
". 	c #FFFFFF",
"+ 	c #EFEFEF",
"@ 	c #EBEBEB",
"# 	c #F7F7F7",
"$ 	c #F8F8F8",
"% 	c #DADADA",
"& 	c #818181",
"* 	c #202221",
"= 	c #0D120F",
"- 	c #464746",
"; 	c #494949",
"> 	c #9C9C9C",
", 	c #E8E8E8",
"' 	c #F9F9F9",
") 	c #AAAAAA",
"! 	c #323433",
"~ 	c #232A27",
"{ 	c #222927",
"] 	c #1C211E",
"^ 	c #232A28",
"/ 	c #262E2C",
"( 	c #1E2523",
"_ 	c #3D3D3D",
": 	c #C6C6C6",
"< 	c #FEFEFE",
"[ 	c #848484",
"} 	c #121614",
"| 	c #2D3734",
"1 	c #313D39",
"2 	c #27302D",
"3 	c #1E2421",
"4 	c #293230",
"5 	c #35423E",
"6 	c #34403C",
"7 	c #28302E",
"8 	c #161817",
"9 	c #A3A3A3",
"0 	c #B3B3B3",
"a 	c #0C0F0E",
"b 	c #252D2A",
"c 	c #2A3331",
"d 	c #2F3B37",
"e 	c #202725",
"f 	c #1D2220",
"g 	c #2F3A37",
"h 	c #36433F",
"i 	c #2E3936",
"j 	c #262E2B",
"k 	c #141817",
"l 	c #7D7D7D",
"m 	c #EEEEEE",
"n 	c #474747",
"o 	c #252D2B",
"p 	c #29312F",
"q 	c #060606",
"r 	c #1B201F",
"s 	c #2D3835",
"t 	c #34413E",
"u 	c #323E3B",
"v 	c #303C38",
"w 	c #181D1B",
"x 	c #5D5D5D",
"y 	c #ECECEC",
"z 	c #262F2C",
"A 	c #29322F",
"B 	c #1A1E1D",
"C 	c #151515",
"D 	c #181B1A",
"E 	c #212826",
"F 	c #313C39",
"G 	c #293330",
"H 	c #2A3431",
"I 	c #101413",
"J 	c #878787",
"K 	c #D9D9D9",
"L 	c #FBFBFB",
"M 	c #FAFAFA",
"N 	c #444545",
"O 	c #35413E",
"P 	c #303C39",
"Q 	c #2C3533",
"R 	c #242C29",
"S 	c #0B0E0D",
"T 	c #727272",
"U 	c #1F1F1F",
"V 	c #010101",
"W 	c #121615",
"X 	c #272F2D",
"Y 	c #252E2B",
"Z 	c #0F0B09",
"` 	c #3E2722",
" .	c #35201C",
"..	c #6F6F6E",
"+.	c #E0E0E0",
"@.	c #D4D4D4",
"#.	c #151C1A",
"$.	c #364440",
"%.	c #323D3A",
"&.	c #000000",
"*.	c #100E08",
"=.	c #252219",
"-.	c #13120D",
";.	c #070707",
">.	c #0F1110",
",.	c #1B211F",
"'.	c #090707",
").	c #2D1F1C",
"!.	c #52342F",
"~.	c #663F38",
"{.	c #683F38",
"].	c #3D3838",
"^.	c #E4E4E4",
"/.	c #989898",
"(.	c #35433F",
"_.	c #1A1F1E",
":.	c #050504",
"<.	c #211F16",
"[.	c #100E0A",
"}.	c #28251B",
"|.	c #0E0D0B",
"1.	c #ACACAC",
"2.	c #939393",
"3.	c #19110F",
"4.	c #432C28",
"5.	c #543530",
"6.	c #633D36",
"7.	c #643D37",
"8.	c #2D2524",
"9.	c #EAEAEA",
"0.	c #6E6E6E",
"a.	c #34413D",
"b.	c #333F3C",
"c.	c #28312E",
"d.	c #151918",
"e.	c #16140B",
"f.	c #393525",
"g.	c #383427",
"h.	c #2E2B20",
"i.	c #16140E",
"j.	c #080705",
"k.	c #121111",
"l.	c #D2D2D2",
"m.	c #5F5E5E",
"n.	c #3B2724",
"o.	c #382421",
"p.	c #5F3B35",
"q.	c #563631",
"r.	c #4A4848",
"s.	c #F4F4F4",
"t.	c #757575",
"u.	c #2C3634",
"v.	c #0B0D0C",
"w.	c #232014",
"x.	c #796C45",
"y.	c #6A5F3E",
"z.	c #393427",
"A.	c #201E15",
"B.	c #090605",
"C.	c #201817",
"D.	c #342725",
"E.	c #4D4C4B",
"F.	c #F6F6F6",
"G.	c #CFCFCF",
"H.	c #424040",
"I.	c #080605",
"J.	c #221513",
"K.	c #2C211F",
"L.	c #C5C5C5",
"M.	c #CBCBCB",
"N.	c #E7E7E7",
"O.	c #8F8F8F",
"P.	c #191E1C",
"Q.	c #181C1B",
"R.	c #040504",
"S.	c #37311F",
"T.	c #64593A",
"U.	c #4F442B",
"V.	c #744D36",
"W.	c #3F281C",
"X.	c #281D1B",
"Y.	c #533530",
"Z.	c #382C29",
"`.	c #372724",
" +	c #AEAEAE",
".+	c #D6D6D6",
"++	c #FDFDFD",
"@+	c #FCFCFC",
"#+	c #C4C4C4",
"$+	c #434040",
"%+	c #838383",
"&+	c #EDEDED",
"*+	c #B3B3B2",
"=+	c #48402D",
"-+	c #363532",
";+	c #535353",
">+	c #030202",
",+	c #2C2616",
"'+	c #19150B",
")+	c #020203",
"!+	c #3B261D",
"~+	c #704B36",
"{+	c #412B22",
"]+	c #110F0E",
"^+	c #060504",
"/+	c #140A08",
"(+	c #150E0C",
"_+	c #1E1614",
":+	c #222121",
"<+	c #D8D8D8",
"[+	c #B5B5B5",
"}+	c #131313",
"|+	c #472C28",
"1+	c #5E3A34",
"2+	c #432A26",
"3+	c #393635",
"4+	c #E6E6E6",
"5+	c #C0C0C0",
"6+	c #373325",
"7+	c #5A5033",
"8+	c #53492D",
"9+	c #151109",
"0+	c #282314",
"a+	c #282315",
"b+	c #070505",
"c+	c #221D1C",
"d+	c #282220",
"e+	c #2A2422",
"f+	c #342B29",
"g+	c #362D2A",
"h+	c #342C29",
"i+	c #231E1D",
"j+	c #1E1918",
"k+	c #120F0F",
"l+	c #1F1A19",
"m+	c #100E0D",
"n+	c #5A5A5A",
"o+	c #F2F2F2",
"p+	c #8B8B8B",
"q+	c #0B0B0A",
"r+	c #492E2A",
"s+	c #653E38",
"t+	c #6C413A",
"u+	c #432823",
"v+	c #767676",
"w+	c #F1F1F1",
"x+	c #484641",
"y+	c #433E2C",
"z+	c #443D29",
"A+	c #3F3722",
"B+	c #262113",
"C+	c #453D27",
"D+	c #0C0A06",
"E+	c #221D1B",
"F+	c #332B29",
"G+	c #392F2D",
"H+	c #372E2C",
"I+	c #3A302D",
"J+	c #392F2C",
"K+	c #302826",
"L+	c #26211F",
"M+	c #352D2A",
"N+	c #2D2624",
"O+	c #201C1A",
"P+	c #908F8F",
"Q+	c #737373",
"R+	c #2B1E1C",
"S+	c #4F322E",
"T+	c #593832",
"U+	c #653E37",
"V+	c #241613",
"W+	c #484746",
"X+	c #444444",
"Y+	c #3F3F3E",
"Z+	c #777777",
"`+	c #3D3C39",
" @	c #363324",
".@	c #2D281A",
"+@	c #13110B",
"@@	c #3C3725",
"#@	c #4B432A",
"$@	c #0C0A09",
"%@	c #2E2725",
"&@	c #382F2C",
"*@	c #382E2C",
"=@	c #39302D",
"-@	c #3B312E",
";@	c #2C2523",
">@	c #292220",
",@	c #362E2B",
"'@	c #312A28",
")@	c #E3E3E3",
"!@	c #2E1E1B",
"~@	c #3D2825",
"{@	c #452C28",
"]@	c #4D302C",
"^@	c #7C7C7C",
"/@	c #C2C2C2",
"(@	c #878887",
"_@	c #414140",
":@	c #444442",
"<@	c #444342",
"[@	c #DBDBDB",
"}@	c #43423F",
"|@	c #342E1D",
"1@	c #1A160D",
"2@	c #28251A",
"3@	c #423D2B",
"4@	c #4E462E",
"5@	c #0F0D0C",
"6@	c #241E1D",
"7@	c #322A27",
"8@	c #362D2B",
"9@	c #3C322F",
"0@	c #2F2725",
"a@	c #27201F",
"b@	c #372F2C",
"c@	c #211C1A",
"d@	c #5C5C5C",
"e@	c #999999",
"f@	c #0C0B0A",
"g@	c #100B0A",
"h@	c #120C0A",
"i@	c #0B0706",
"j@	c #BFBFBF",
"k@	c #F3F3F3",
"l@	c #D1D1D1",
"m@	c #ADADAD",
"n@	c #AFAFAF",
"o@	c #ABABAB",
"p@	c #16140F",
"q@	c #12100D",
"r@	c #29261B",
"s@	c #433F2B",
"t@	c #16140D",
"u@	c #090807",
"v@	c #272220",
"w@	c #332B28",
"x@	c #2E2624",
"y@	c #2A2321",
"z@	c #322A28",
"A@	c #1A1614",
"B@	c #2B271A",
"C@	c #363635",
"D@	c #F0F0F0",
"E@	c #C9C9C9",
"F@	c #161A19",
"G@	c #1C2220",
"H@	c #979797",
"I@	c #7A7A7A",
"J@	c #050403",
"K@	c #110F0A",
"L@	c #0F0E09",
"M@	c #0B0907",
"N@	c #13110C",
"O@	c #0F0D08",
"P@	c #1A1615",
"Q@	c #2F2825",
"R@	c #312A27",
"S@	c #2F2826",
"T@	c #272120",
"U@	c #241F1D",
"V@	c #191615",
"W@	c #221E1C",
"X@	c #060604",
"Y@	c #2C291E",
"Z@	c #14130D",
"`@	c #A6A6A6",
" #	c #1A201E",
".#	c #4E4E4E",
"+#	c #221F16",
"@#	c #2F2C20",
"##	c #242118",
"$#	c #272114",
"%#	c #413D2B",
"&#	c #3E3A28",
"*#	c #18140B",
"=#	c #161312",
"-#	c #1D1918",
";#	c #26201F",
">#	c #1E1A19",
",#	c #161212",
"'#	c #141010",
")#	c #060505",
"!#	c #1A1811",
"~#	c #211E16",
"{#	c #181715",
"]#	c #E9E9E9",
"^#	c #888888",
"/#	c #222A27",
"(#	c #8D8D8D",
"_#	c #1B1912",
":#	c #272418",
"<#	c #4E472F",
"[#	c #5C5132",
"}#	c #17150E",
"|#	c #4F4933",
"1#	c #5E5435",
"2#	c #2A2517",
"3#	c #080603",
"4#	c #4F3326",
"5#	c #A46F4F",
"6#	c #6D4835",
"7#	c #0D0A0A",
"8#	c #1B1910",
"9#	c #46402A",
"0#	c #6D613E",
"a#	c #4A432D",
"b#	c #302C21",
"c#	c #15140E",
"d#	c #111111",
"e#	c #CCCCCC",
"f#	c #696969",
"g#	c #2F3936",
"h#	c #1A1F1D",
"i#	c #A7A7A7",
"j#	c #322E20",
"k#	c #3A3625",
"l#	c #262318",
"m#	c #221F14",
"n#	c #19160E",
"o#	c #2E2B1E",
"p#	c #4C462F",
"q#	c #3E3A29",
"r#	c #463E27",
"s#	c #211C10",
"t#	c #0E070B",
"u#	c #131008",
"v#	c #3A3525",
"w#	c #514C37",
"x#	c #7A6E48",
"y#	c #7D6F48",
"z#	c #3D3622",
"A#	c #090B0A",
"B#	c #060706",
"C#	c #272827",
"D#	c #B2B2B2",
"E#	c #17150F",
"F#	c #262319",
"G#	c #2E2A20",
"H#	c #221F17",
"I#	c #231F14",
"J#	c #241F13",
"K#	c #2D2A1D",
"L#	c #27241A",
"M#	c #2D2718",
"N#	c #231E12",
"O#	c #1F1B0F",
"P#	c #3D3521",
"Q#	c #6A5F3D",
"R#	c #514B35",
"S#	c #423B25",
"T#	c #101312",
"U#	c #202624",
"V#	c #27302E",
"W#	c #151A18",
"X#	c #080B0A",
"Y#	c #000201",
"Z#	c #323232",
"`#	c #5F5F5F",
" $	c #131716",
".$	c #313D3A",
"+$	c #C1C1C1",
"@$	c #393938",
"#$	c #322C1D",
"$$	c #1F1C15",
"%$	c #29271C",
"&$	c #2C281C",
"*$	c #0A0806",
"=$	c #2E2A1E",
"-$	c #665B3B",
";$	c #766944",
">$	c #756842",
",$	c #796B45",
"'$	c #1F1B10",
")$	c #242117",
"!$	c #070604",
"~$	c #1F2624",
"{$	c #34403D",
"]$	c #212725",
"^$	c #333F3B",
"/$	c #141917",
"($	c #B6B6B6",
"_$	c #12100A",
":$	c #332E1F",
"<$	c #3A3627",
"[$	c #332F22",
"}$	c #564D32",
"|$	c #544B2F",
"1$	c #3F3824",
"2$	c #262216",
"3$	c #050402",
"4$	c #040303",
"5$	c #151817",
"6$	c #252C2B",
"7$	c #252C2A",
"8$	c #2D3735",
"9$	c #212927",
"0$	c #161918",
"a$	c #242B29",
"b$	c #262D2B",
"c$	c #414141",
"d$	c #F5F5F5",
"e$	c #606060",
"f$	c #3C3421",
"g$	c #1F1C14",
"h$	c #50462B",
"i$	c #3D3520",
"j$	c #12100C",
"k$	c #0F0D09",
"l$	c #0F0E0A",
"m$	c #090805",
"n$	c #050605",
"o$	c #161A18",
"p$	c #2C3633",
"q$	c #2E3835",
"r$	c #35423F",
"s$	c #1E2422",
"t$	c #1C221F",
"u$	c #181C1A",
"v$	c #DDDDDD",
"w$	c #383736",
"x$	c #413923",
"y$	c #554B2E",
"z$	c #15130D",
"A$	c #16150F",
"B$	c #2D2A1F",
"C$	c #403926",
"D$	c #2A261B",
"E$	c #232424",
"F$	c #303B38",
"G$	c #242C2A",
"H$	c #2E3836",
"I$	c #2F3937",
"J$	c #1D2320",
"K$	c #1B211D",
"L$	c #404140",
"M$	c #474746",
"N$	c #18150C",
"O$	c #100E09",
"P$	c #322B1B",
"Q$	c #312C1D",
"R$	c #554D33",
"S$	c #3E3826",
"T$	c #4C4530",
"U$	c #413922",
"V$	c #DEDEDE",
"W$	c #707070",
"X$	c #141615",
"Y$	c #1B2220",
"Z$	c #1D2321",
"`$	c #141815",
" %	c #2E2E2E",
".%	c #C8C8C8",
"+%	c #A5A5A5",
"@%	c #626261",
"#%	c #3C3726",
"$%	c #302C1F",
"%%	c #5D5D5C",
"&%	c #8C8C8C",
"*%	c #4F4F4F",
"=%	c #181818",
"-%	c #353535",
";%	c #969696",
">%	c #E2E2E2",
". . . . . . . . . . . . . . . . . . . . . . . . . . . . . . . . . . . . . . . . ",
". . . . . . . . . . . . . . . . . . . . . . . . . . . . . . . . . . . . . . . . ",
". . . . . . . . . . . . . . . . . . . . . . . . . . . . . . . . . . . . . . . . ",
". . . . . . . . . . . . + @ # $ . . . . . . . . . . . . . . . . . . . . . . . . ",
". . . . . . . . . . % & * = - ; > , . . . . . . . . . . . . . . . . . . . . . . ",
". . . . . . . . ' ) ! ~ { ] ^ / ( _ : < . . . . . . . . . . . . . . . . . . . . ",
". . . . . . . # [ } | 1 2 3 4 5 6 7 8 9 $ . . . . . . . . . . . . . . . . . . . ",
". . . . . . . 0 a b c d e f g h h i j k l m . . . . . . . . . . . . . . . . . . ",
". . . . . . # n o i p | { q r s t 5 u v w x y . . . . . . . . . . . . . . . . . ",
". . . . . . ) ( 7 z A / c B C D E F h G H I J K L . . . . . . . . . . . . . . . ",
". . . . . M N F O P Q o R S T U V W X A Y Z `  ...+.. . . . . . . . . . . . . . ",
". . . . . @.#.6 $.h 5 %.R &.*.=.-.;.>.,.'.).!.~.{.].^.. . . . . . . . . . . . . ",
". . . . . /.E t $.(.i _.:.<.[.}.}.|.1.2.3.4.5.6.7.8.9.. . . . . . . . . . . . . ",
". . . . < 0./ a.b.c.d.e.f.g.h.i.j.k.l.M m.n.o.p.q.r.s.. . . . . . . . . . . . . ",
". . . . < t./ u.E v.w.x.y.z.A.B.C.D.E.F.G.H.I.J.K.L.. . . . # ' . . . . . . . . ",
". . < M.N.O.P.Q.R.S.T.U.V.W.V X.Y.Z.`. +. 9.L.l..+++. . @+#+$+r.%+&+. . . . . . ",
". < *+=+-+;+;.>+,+'+)+!+~+{+]+^+/+(+_+:+<+. . . . . . . [+}+|+1+2+3+4+. . . . . ",
". 5+6+7+8+9+0+a+b+c+d+e+f+g+h+i+j+k+l+m+n+o+. . . . . . p+q+r+s+t+u+v+: &+++. . ",
"w+x+y+z+A+B+C+D+E+F+G+H+I+J+K+L+M+l+N+e+O+P+. . . . . . Q+R+S+T+U+V+W+X+Y+Z+5+$ ",
"w+`+ @.@+@@@#@$@%@&@I+*@=@-@g+e+-@;@>@,@'@l+)@< . . . . 0 !@~@{@]@^@/@(@_@:@<@x ",
"[@}@|@1@2@3@4@5@6@F+J+7@8@-@=@;@9@0@a@b@F+c@d@e@. . . . ^.f@g@h@i@j@. . k@l@m@n@",
"o@p@q@j.r@s@t@u@v@M+J+I+I+J+w@;@-@x@y@z@N+A@B@C@D@. . . E@F@c | G@H@. . . . . . ",
"I@J@K@L@M@N@6+O@P@Q@R@S@M+F+T@U@%@V@W@c+V@X@Y@Z@^.. . . `@ #b z f O.. . . . . . ",
".#+#@###A+$#%#&#*#=#-#;#N+N+e+>#m+,#'#)#!#t@~#{#]#. . . ^#/#$.t { > . . . . . . ",
"(#_#:#<#[#|@}#|#1#2#3#4#5#6#7#V 8#9#0#a#b#c#d#e#++. . < f#z h g#h#i#. . . . . . ",
"G.|.j#k#l#m#n#o#p#q#r#s#t#&.u#v#w#x#y#z#:.A#B##++.4+F.+ C#u.5 s _.D#. . . . . . ",
"L v+E#F#G#H#I#J#K#L#M#N#*.O#P#Q#R#S#j.T#U#V#c W#X#Y#Z#`# $.$h 6  #+$. . . . . . ",
". ^.@$#$$$%$b#&$*$=$-$;$>$,$'$)$!$v.~$i b.{$u.^ | ]$E _.F@^$h F /$l.. . . . . . ",
". . ($_$:$<$=.I#[.[$}$|$1$2$3$4$5$4 a.$.5 g 6$7$2 H 8$9$0$a$H b$c$s.. . . . . . ",
". . d$e$f$g$h$i$!$j$k$l$E#m$n$o$/ b.$.h u p${ q$Q H r$i s$t$f u$o@. . . . . . . ",
". . . v$w$x$y$1@z$A$L#B$C$D$& E$E F$5 h g ^ %.G$H$Q O I$7 J$K$L$d$. . . . . . . ",
". . . . .+M$N$O$P$Q$R$S$T$U$V$[@W$X$Y$/ Y$h#2 { b p$p$2 Z$`$ %.%. . . . . . . . ",
". . . . . o+@.o@+%@%#%$%%%($s.. ++4+l@L.m@&%*%}+=%-%;+v+;%e#k@. . . . . . . . . ",
". . . . . . . . . m l.>%L . . . . . . . . . L k@m # L . . . . . . . . . . . . . ",
". . . . . . . . . . . . . . . . . . . . . . . . . . . . . . . . . . . . . . . . ",
". . . . . . . . . . . . . . . . . . . . . . . . . . . . . . . . . . . . . . . . ",
". . . . . . . . . . . . . . . . . . . . . . . . . . . . . . . . . . . . . . . . ",
". . . . . . . . . . . . . . . . . . . . . . . . . . . . . . . . . . . . . . . . ",
". . . . . . . . . . . . . . . . . . . . . . . . . . . . . . . . . . . . . . . . ",
". . . . . . . . . . . . . . . . . . . . . . . . . . . . . . . . . . . . . . . . "};
