/* XPM */
static char * C:\Users\gaeta\Desktop\code\42\so_long\img\sand_xpm[] = {
"40 40 618 2",
"  	c None",
". 	c #ECCF91",
"+ 	c #EBCD8F",
"@ 	c #E9CF91",
"# 	c #EACB8C",
"$ 	c #E7CA8C",
"% 	c #E6C386",
"& 	c #E6C588",
"* 	c #EDCB8B",
"= 	c #F3D393",
"- 	c #F6D692",
"; 	c #EDCE8F",
"> 	c #E1C388",
", 	c #DEBE82",
"' 	c #DEC48A",
") 	c #E3C486",
"! 	c #F2D696",
"~ 	c #F2D191",
"{ 	c #E3C98E",
"] 	c #E8C98A",
"^ 	c #EDCD8C",
"/ 	c #EFD89B",
"( 	c #F7D795",
"_ 	c #EDCC8D",
": 	c #E6C98A",
"< 	c #E7CD90",
"[ 	c #EACB8D",
"} 	c #E5C98D",
"| 	c #E4C68A",
"1 	c #E8C889",
"2 	c #F0D295",
"3 	c #EACE90",
"4 	c #EBCC8D",
"5 	c #EDC988",
"6 	c #E9CC8D",
"7 	c #EED395",
"8 	c #EFD293",
"9 	c #E3C184",
"0 	c #E6C182",
"a 	c #EED091",
"b 	c #F0CF8E",
"c 	c #F1D191",
"d 	c #E8CC8C",
"e 	c #EBD192",
"f 	c #EFCC8C",
"g 	c #E9CE90",
"h 	c #E0C081",
"i 	c #EBCC8C",
"j 	c #F7D290",
"k 	c #F7D793",
"l 	c #F6D391",
"m 	c #F2D28F",
"n 	c #E8C98B",
"o 	c #DBBF84",
"p 	c #E1C286",
"q 	c #EECE8F",
"r 	c #ECCC8E",
"s 	c #EDD092",
"t 	c #EBCB8C",
"u 	c #E2C78C",
"v 	c #E4C88B",
"w 	c #E8CE92",
"x 	c #E8CA8B",
"y 	c #E9CB8C",
"z 	c #EDCF90",
"A 	c #EFCF8F",
"B 	c #E5C88B",
"C 	c #E0C185",
"D 	c #EDD190",
"E 	c #F2D393",
"F 	c #F0D193",
"G 	c #EFCA89",
"H 	c #F0DF9D",
"I 	c #F0CE8D",
"J 	c #F3D391",
"K 	c #E9CA8C",
"L 	c #DFBF80",
"M 	c #E6C888",
"N 	c #EED293",
"O 	c #F5D391",
"P 	c #F6D795",
"Q 	c #E6C88B",
"R 	c #DFC184",
"S 	c #E1CB8E",
"T 	c #E2C284",
"U 	c #EBD494",
"V 	c #F1D898",
"W 	c #F1D192",
"X 	c #F5D897",
"Y 	c #F9D593",
"Z 	c #F7D695",
"` 	c #F1D291",
" .	c #EFD090",
"..	c #E6C686",
"+.	c #E5CA8C",
"@.	c #F3D494",
"#.	c #ECCB8B",
"$.	c #E7CB8B",
"%.	c #E7C889",
"&.	c #DDC289",
"*.	c #E9CA8B",
"=.	c #EFD494",
"-.	c #EBD092",
";.	c #E9C789",
">.	c #E9CB8B",
",.	c #EACB8F",
"'.	c #EDCD8F",
").	c #F2D291",
"!.	c #F2D08F",
"~.	c #EDD191",
"{.	c #E7C88B",
"].	c #E1C487",
"^.	c #E1C184",
"/.	c #E1C589",
"(.	c #E9C787",
"_.	c #F4D694",
":.	c #F3D290",
"<.	c #F0D091",
"[.	c #EED392",
"}.	c #E2C98D",
"|.	c #D8B77D",
"1.	c #D9BE83",
"2.	c #DCBE83",
"3.	c #DFC388",
"4.	c #EED394",
"5.	c #F6DB9C",
"6.	c #F2D595",
"7.	c #EACC8D",
"8.	c #EBC98A",
"9.	c #EDCD8D",
"0.	c #EECE8D",
"a.	c #F1D090",
"b.	c #E7C688",
"c.	c #F1D392",
"d.	c #F4D492",
"e.	c #F4D594",
"f.	c #E8CF91",
"g.	c #ECD191",
"h.	c #EECF8F",
"i.	c #E9CB8E",
"j.	c #E9C88A",
"k.	c #E2C489",
"l.	c #E0C286",
"m.	c #E3C387",
"n.	c #EED594",
"o.	c #F7D694",
"p.	c #ECCB8A",
"q.	c #DDC58A",
"r.	c #DCC184",
"s.	c #E9C687",
"t.	c #EBCD8C",
"u.	c #EDD08F",
"v.	c #EACC8E",
"w.	c #E7CE92",
"x.	c #ECC786",
"y.	c #EACC8C",
"z.	c #EECB8B",
"A.	c #E6C88C",
"B.	c #E9CB8D",
"C.	c #F4D999",
"D.	c #ECD495",
"E.	c #E0C285",
"F.	c #DBBF85",
"G.	c #D8BD83",
"H.	c #D1B57C",
"I.	c #D9BB80",
"J.	c #E2C286",
"K.	c #E9C889",
"L.	c #E6CE8F",
"M.	c #EDCF8F",
"N.	c #EED495",
"O.	c #EFD191",
"P.	c #EECD8D",
"Q.	c #DDBE83",
"R.	c #DCBF84",
"S.	c #E2C488",
"T.	c #DFC085",
"U.	c #D8BC81",
"V.	c #DCBC80",
"W.	c #E9D395",
"X.	c #EFCD8B",
"Y.	c #ECD496",
"Z.	c #F1D08F",
"`.	c #F2D08E",
" +	c #E7C789",
".+	c #E4C182",
"++	c #E7CB8D",
"@+	c #DEC488",
"#+	c #DBBA7F",
"$+	c #E5CA8E",
"%+	c #ECC887",
"&+	c #EACD8E",
"*+	c #E9CC8E",
"=+	c #EBCA8B",
"-+	c #F0D494",
";+	c #EFD192",
">+	c #E1C689",
",+	c #D6BF85",
"'+	c #DCBE84",
")+	c #DDBD81",
"!+	c #DCBB7F",
"~+	c #DFC488",
"{+	c #E9CD8E",
"]+	c #F2CC88",
"^+	c #E5C68A",
"/+	c #D3BF85",
"(+	c #DDC287",
"_+	c #EBCF92",
":+	c #ECCD8F",
"<+	c #E3C283",
"[+	c #E5C98C",
"}+	c #E7CA8D",
"|+	c #E0C488",
"1+	c #D2B67F",
"2+	c #D9B87D",
"3+	c #EBD293",
"4+	c #F0D08E",
"5+	c #EDDB9B",
"6+	c #EFCB8A",
"7+	c #F4D390",
"8+	c #E8CB8D",
"9+	c #E4CA8D",
"0+	c #E1C285",
"a+	c #ECCA8A",
"b+	c #EFCF8E",
"c+	c #E8CD8F",
"d+	c #E8C98C",
"e+	c #F2D091",
"f+	c #E3C78B",
"g+	c #DDC68C",
"h+	c #EDCC8C",
"i+	c #F4D190",
"j+	c #EFCD8E",
"k+	c #E5C78A",
"l+	c #E9C98A",
"m+	c #E4C386",
"n+	c #DEC086",
"o+	c #E6C98C",
"p+	c #EDCC8B",
"q+	c #E5C687",
"r+	c #E8D092",
"s+	c #EDCE8E",
"t+	c #E9C988",
"u+	c #F0D293",
"v+	c #F4D796",
"w+	c #DCC085",
"x+	c #D4B57B",
"y+	c #DEBF85",
"z+	c #E9CE8F",
"A+	c #E1CA8F",
"B+	c #EAC988",
"C+	c #EECF91",
"D+	c #E4CA8C",
"E+	c #EBCE8E",
"F+	c #F3D291",
"G+	c #F0CD8B",
"H+	c #EACA8C",
"I+	c #EBCF90",
"J+	c #F1D393",
"K+	c #E8CA8D",
"L+	c #F6D997",
"M+	c #E8CC8F",
"N+	c #E0C287",
"O+	c #E9CA8A",
"P+	c #ECCE91",
"Q+	c #EDCB8A",
"R+	c #E5C588",
"S+	c #E8CA8C",
"T+	c #EFD391",
"U+	c #EFD395",
"V+	c #DEBF83",
"W+	c #E3C385",
"X+	c #EFCE8E",
"Y+	c #ECC988",
"Z+	c #ECD195",
"`+	c #E2C487",
" @	c #EAC889",
".@	c #E7CB8E",
"+@	c #E7C98C",
"@@	c #F1D294",
"#@	c #E4C388",
"$@	c #EBCF91",
"%@	c #E4C486",
"&@	c #E4C789",
"*@	c #F2D392",
"=@	c #E4C78B",
"-@	c #EED191",
";@	c #DEC084",
">@	c #E1C084",
",@	c #DFC187",
"'@	c #E3C687",
")@	c #EECE8E",
"!@	c #F6D793",
"~@	c #E7C888",
"{@	c #EACA8A",
"]@	c #E9CF8E",
"^@	c #E5CB8D",
"/@	c #E3C586",
"(@	c #E2BF7F",
"_@	c #E4C78A",
":@	c #E7C98A",
"<@	c #E7C385",
"[@	c #EECF8E",
"}@	c #EECC8D",
"|@	c #F0D18F",
"1@	c #EBCC8E",
"2@	c #E5C487",
"3@	c #ECC886",
"4@	c #EECD8E",
"5@	c #EBC988",
"6@	c #E0BF83",
"7@	c #E5CC8F",
"8@	c #E6CA8B",
"9@	c #E2C588",
"0@	c #EFCD8C",
"a@	c #E9C98B",
"b@	c #ECCE8E",
"c@	c #E4C587",
"d@	c #DFBD82",
"e@	c #E3C588",
"f@	c #E5CA8D",
"g@	c #E0C589",
"h@	c #DBBC81",
"i@	c #D8B87C",
"j@	c #E8CE90",
"k@	c #F1CF8E",
"l@	c #E1C588",
"m@	c #E2C98E",
"n@	c #E2C183",
"o@	c #ECC788",
"p@	c #DBBE83",
"q@	c #EAC98B",
"r@	c #E4CC8F",
"s@	c #E9C585",
"t@	c #F0CA8B",
"u@	c #F2D190",
"v@	c #F0D08F",
"w@	c #E5C78B",
"x@	c #E9D093",
"y@	c #E3C587",
"z@	c #F0CB8A",
"A@	c #F4CE8C",
"B@	c #E9D094",
"C@	c #F2CE8B",
"D@	c #E5C385",
"E@	c #D4B87E",
"F@	c #DDBF84",
"G@	c #F0D192",
"H@	c #ECC98A",
"I@	c #E6CC8F",
"J@	c #E6CB8D",
"K@	c #EDCF91",
"L@	c #ECCE8F",
"M@	c #EAC888",
"N@	c #E7C98B",
"O@	c #F1D290",
"P@	c #E2C083",
"Q@	c #DDC085",
"R@	c #F1D091",
"S@	c #E5C384",
"T@	c #E9D091",
"U@	c #E6C486",
"V@	c #EDCE8C",
"W@	c #EAC483",
"X@	c #E8CE8F",
"Y@	c #EACA8B",
"Z@	c #EBC887",
"`@	c #E6C88A",
" #	c #EDCF8E",
".#	c #E4C487",
"+#	c #EFCC89",
"@#	c #E0C084",
"##	c #E7CB8F",
"$#	c #E8CB8B",
"%#	c #E8CB8C",
"&#	c #E7C98D",
"*#	c #EBCD8E",
"=#	c #E7C88A",
"-#	c #E1C587",
";#	c #DAC189",
">#	c #F1D190",
",#	c #ECCD8C",
"'#	c #F0D290",
")#	c #EBCA8A",
"!#	c #EED090",
"~#	c #F0CE8C",
"{#	c #F5D593",
"]#	c #EAD092",
"^#	c #E0C184",
"/#	c #DABA80",
"(#	c #E0C88B",
"_#	c #EACD8C",
":#	c #F4DE9D",
"<#	c #DABE83",
"[#	c #E4C185",
"}#	c #E5CE90",
"|#	c #DCC084",
"1#	c #DCC087",
"2#	c #F5D492",
"3#	c #EDD090",
"4#	c #E3C68B",
"5#	c #EACB8E",
"6#	c #DEC389",
"7#	c #EBCF8F",
"8#	c #E5C587",
"9#	c #D3B77E",
"0#	c #D7B97F",
"a#	c #EED092",
"b#	c #ECD192",
"c#	c #F6D28F",
"d#	c #F3D694",
"e#	c #F4D291",
"f#	c #EFCE8C",
"g#	c #EED193",
"h#	c #E3C384",
"i#	c #DFC98B",
"j#	c #DEC68A",
"k#	c #F5D18F",
"l#	c #F3D192",
"m#	c #FADA99",
"n#	c #F8DD9E",
"o#	c #F3D08D",
"p#	c #E0C388",
"q#	c #D9BE86",
"r#	c #E9CC8F",
"s#	c #E7CA8B",
"t#	c #E3C98D",
"u#	c #F3D695",
"v#	c #F6D18E",
"w#	c #F3D090",
"x#	c #F5D594",
"y#	c #F6D694",
"z#	c #EFD597",
"A#	c #E7C788",
"B#	c #F2CF8E",
"C#	c #F3D796",
"D#	c #F1D594",
"E#	c #E8C789",
"F#	c #E9CD8F",
"G#	c #E0C489",
"H#	c #DFC287",
"I#	c #E2C084",
"J#	c #E6CD8F",
"K#	c #E1C083",
"L#	c #E5D195",
"M#	c #EFCC8B",
"N#	c #E6CA8C",
"O#	c #EFCE8D",
"P#	c #EFD392",
"Q#	c #EFD193",
"R#	c #E4C283",
"S#	c #E4CD90",
"T#	c #EBC686",
"U#	c #E7C587",
"V#	c #DFC387",
"W#	c #E2C689",
"X#	c #E4C387",
"Y#	c #E3CC8F",
"Z#	c #E3C88C",
"`#	c #F0CD8C",
" $	c #E0BD7E",
".$	c #F3D795",
"+$	c #EBCE8F",
"@$	c #EAC98A",
"#$	c #ECCF8E",
"$$	c #EED08F",
"%$	c #ECCC8C",
"&$	c #D5B67C",
"*$	c #DDC68E",
"=$	c #DCBB81",
"-$	c #D9BC83",
";$	c #DCC58C",
">$	c #D8BA80",
",$	c #E3C386",
"'$	c #DCBA7E",
")$	c #F4D695",
"!$	c #E0CA8F",
"~$	c #D6B67D",
"{$	c #DDC086",
"]$	c #DEC287",
"^$	c #DBCA8E",
"/$	c #D5BF87",
"($	c #DFC084",
"_$	c #E8CC8D",
":$	c #E3C285",
"<$	c #E7CB8C",
"[$	c #F1D292",
"}$	c #F8D995",
"|$	c #F3D696",
"1$	c #E3C388",
"2$	c #D4BF85",
"3$	c #DBBD83",
"4$	c #F0D292",
"5$	c #E8CD8E",
"6$	c #EECB8C",
"7$	c #EDD293",
"8$	c #DFC285",
"9$	c #DFC083",
"0$	c #D5B87F",
"a$	c #ECCD8E",
"b$	c #E2C88B",
"c$	c #DAB97F",
"d$	c #E3C789",
"e$	c #E5C688",
"f$	c #E5C88C",
"g$	c #E9D292",
"h$	c #F0D797",
"i$	c #E3C589",
"j$	c #E4C384",
"k$	c #E8CA8A",
"l$	c #E4C488",
"m$	c #ECCC8D",
"n$	c #E4C98D",
"o$	c #F0D496",
"p$	c #C9B37D",
"q$	c #CBAE77",
"r$	c #E0C386",
"s$	c #E9CA8D",
"t$	c #F3D493",
"u$	c #F8D994",
"v$	c #F0D291",
"w$	c #E7C689",
"x$	c #EBC989",
"y$	c #D6B87F",
"z$	c #E3C68A",
"A$	c #E6C889",
"B$	c #E3CA8D",
"C$	c #ECCA89",
"D$	c #F8DF9E",
"E$	c #E4C689",
"F$	c #E0BF82",
"G$	c #EAD091",
"H$	c #EDD091",
"I$	c #E2C387",
"J$	c #E3C688",
"K$	c #E2C78B",
"L$	c #E4C98F",
"M$	c #E5C889",
"N$	c #DDBE84",
"O$	c #F3D593",
"P$	c #EAC788",
"Q$	c #E9D090",
"R$	c #EDCB89",
"S$	c #F5D18E",
"T$	c #E6C68A",
"U$	c #E5CD8F",
"V$	c #E7C486",
"W$	c #D9C087",
"X$	c #E1C183",
"Y$	c #EECC8C",
"Z$	c #DEC286",
"`$	c #E6C789",
" %	c #E1C386",
".%	c #E8CC8E",
"+%	c #DEC184",
"@%	c #DBC287",
"#%	c #F4E2A2",
"$%	c #F4D292",
"%%	c #E1C78B",
"&%	c #E6C78B",
"*%	c #EFD294",
"=%	c #E6C788",
"-%	c #E3C88B",
";%	c #E5C689",
">%	c #EAC785",
",%	c #F1D897",
"'%	c #EFD898",
")%	c #F0D394",
"!%	c #F0C887",
"~%	c #E6C385",
"{%	c #E7C687",
"]%	c #E6C587",
"^%	c #F0D395",
"/%	c #E9CD8D",
"(%	c #E6CA8E",
"_%	c #E4CE91",
":%	c #F0D190",
"<%	c #EED699",
"[%	c #EED294",
"}%	c #EACD8F",
"|%	c #E5C386",
"1%	c #F4D393",
"2%	c #DDC389",
"3%	c #E2C386",
"4%	c #F3D697",
"5%	c #F2D292",
"6%	c #F0CE8E",
"7%	c #E2C88C",
"8%	c #F4D592",
"9%	c #E7CE8F",
"0%	c #DCC287",
"a%	c #E8CB8E",
"b%	c #DEC186",
"c%	c #DFBE83",
"d%	c #ECCA8B",
"e%	c #EACB8A",
"f%	c #F0D191",
"g%	c #EBCB8B",
"h%	c #E5C486",
"i%	c #E0C186",
"j%	c #F6D492",
"k%	c #F3D594",
"l%	c #F2D391",
"m%	c #E1C387",
"n%	c #D7B980",
"o%	c #DDBE82",
"p%	c #E7C588",
"q%	c #E3C58A",
"r%	c #EFD295",
"s%	c #F4E3A2",
"t%	c #F4D392",
"u%	c #E3C98B",
"v%	c #EFD495",
"w%	c #EED192",
"x%	c #E5C789",
"y%	c #F1D896",
"z%	c #EECB89",
"A%	c #EFC886",
". + @ # $ % & * = - ; > , ' ) ! ~ { ] ^ / ( _ : < [ } | 1 [ 2 3 4 5 6 7 8 9 0 a ",
"b c d e f g h i j k l m n o p q r s t u v w x y z A B C n D E F G H I J K L M N ",
"O P Q o R S T U V W X Y Z `  ...+.@.#.$.%.&.*.=.t -.;.>.,.'.).!.~.{.].^./.(._.:.",
"<.[.}.|.1.2.3.4.5.6.7.8.9.0.a.b.) q c.d.e.3 f.g.h.i.j.7.k.l.m.n.o.p.q.r.^.s.t.u.",
"v.*.w.x.y.z.A.B.C.D.E.F.G.H.I.J.| K.B.L.M.N.O.P.y Q.R.S.T.U.V.W.X.<.Y.Z.`. +.+++",
"@+#+$+%+K.&+*+=+-+;+>+,+'+)+!+~+{+]+^+/+(+_+P.:+:+<+[+}+|+1+2+3+1 4+5+6+7+*+j.8+",
"9+0+++a+b+c+d+ .e+= f+g+h+i+j+k+B l+m+n+o+p+q+r+s+t+u+v+l+w+x+y+8+z+A+B+C+D+g E+",
"F+G+H+I+J+O.o+K+a.L+M+N+#. .O+n P+[.Q+R+S+f T+U+B V+W+I+X+Y+] d+=+Z+`+`+ @.@+@@@",
"#@$@%@&@u.*@M.=@-.-@=@;@&@r+>@,@'@)@!@~@{@]@^@&+^+/@(@_@:@<@[@E+}@|@1@2@3@4@5@n ",
"6@7@8@9@F.4 0@a@b@c@d@e@f@C g@{.h@i@j@k@0.l@m@)@:@n@o@* k+0+p@>@; q@r@s@t@u@v@w@",
"{@7.x@n y@z@A@8.K j.O+8.h.& B@C@D@E@F@G@H@I@J@K@L@ +M@N@g.O@P@Q@3 h+z R@b S@T@t+",
"U@<.` :+4@V@W@X@Y@Z@`@e@b@ #k+.#+#{.!+l.@###8.$#7.d %#&#9+*#v.=#-#;#%@>#,#%.'#)#",
"!#~#{#]#k+^#/#(#=+6+h+_#b :#&@<#[#}#|#1#p@<@2#3#k+4#5#e.# 6#7#P 8#9#0#{.a#b#c#2#",
"d#e#f#g## h#i#j#c@+ k#l#~ m#n#o#p#q#r#s#t#*.u#v#w#8 1@x#y#%#.@z#h+b.;@| 8+A#B#C#",
"6.D#E#K L@(.F#v G#H#I#J#m+K#L#M#x N#O#P#Q#R#S#T#U#V#W#X#Y#@+/.Z## `#M@F#[+ $[@.$",
").C.+$@$#$a@ #$$%$`+&$*$=$-$;$>$,$] '$B.)$:@!$'$o ~${$]$^$/$($_$B.v@I q@{.:$<$[$",
"}$|$! -+1$2$3$[@4$%$ +5$4 6$7$8$9$h 0$N+a$6 b$c$d$e$f$g$h$N i$j$Y@t k$l$c@m$; J ",
"i n$# o$p p$q$r$s$t$u$>#v$|@[@w$>+x$M.R y$z$s+`@A$B$C$P D$= g V+E$K ]$F$G$H$I$J$",
"K$L$M$a$K+N$W#r$S.&+t$O$P$Q$}@k+l.R$S$u+h@T$O.U$V$W$X$X+`#O@Y$E.Z$i `$ %Q .%+%@%",
"#%$%m$A$%%&%*%; =%-%=.g#;%>%,%'%)%6+!%@.s 8 b#E$B.~%{%]%*+4+7.|  @^%/%(%$ _%A$:%",
"<%( h+: < [ n$i$1 [ 2 3 m$5 y [%8 n@0 a . }%@ # $ |%& * 1%- ; p#)+2%3%4%5%{ ] 9.",
"v w x y z A B C n D E F G H I J K L M N 6%c d e f g h i j k l m n o p q r s t 7%",
"%.&.*.=.t -.;.>.,.'.).!.~.{.].^./.(._.:.O P Q o R S T U V W X Y Z `  ...+.@.#.s#",
"e.3 f.g.h.i.j.7.k.l.m.n.o.p.q.r.^.s.t. #<.[.}.|.1.2.3.4.5.6.7.8.9.0.a.b.) q c.8%",
"M.N.O.P.y Q.R.S.T.U.V.W.X.<.Y.Z.`. +.+J@}%*.w.x.y.z.A.B.C.D.E.F.G.H.I.J.| K.B.9%",
"0%_+P.:+:+<+[+}+|+1+2+3+1 4+5+6+7+*+j.a%@+#+$+%+K.&+*+=+-+;+>+,+'+)+!+~+{+]+^+/+",
"B p+q+r+s+t+u+v+l+w+x+y+8+z+A+B+C+D+g b@D+0+++a+b+c+d+ .e+= f+g+h+i+j+k+B l+m+b%",
"S+f T+U+B V+W+I+X+Y+] d+=+Z+`+`+ @.@+@)%F+G+H+I+J+O.o+K+a.L+M+N+#. .O+n P+[.Q+R+",
"{@]@^@&+^+/@(@_@:@<@[@E+}@|@1@2@3@4@5@x #@$@%@&@u.*@M.=@-.-@=@;@&@r+>@,@'@)@!@~@",
"O#l@m@)@:@n@o@* k+0+p@>@; q@r@s@t@u@v@w@c%7@8@9@F.4 0@a@b@c@d@e@f@C g@{.h@i@j@k@",
"d%I@J@K@L@ +M@N@g.O@P@Q@3 h+z R@b S@T@t+e%7.x@n y@z@A@8.K j.O+8.h.& B@C@D@E@F@f%",
"@###8.$#7.d %#&#9+*#v.=#-#;#%@>#,#%.'#g%h%<.` :+4@V@W@X@Y@Z@`@e@b@ #k+.#+#{.!+i%",
"p@<@2#3#k+4#5#e.# 6#7#P 8#9#0#{.a#b#c#j%3#~#{#]#k+^#/#(#=+6+h+_#b :#&@<#[#}#|#1#",
"t#*.u#v#w#8 1@x#y#%#.@z#h+b.;@| 8+A#B#C#d#e#f#g## h#i#j#c@+ k#l#~ m#n#o#p#q#r#N@",
";+R#S#T#U#V#W#X#Y#@+/.Z## `#M@F#[+ $[@.$6.D#E#K L@(.F#v G#H#I#J#m+K#L#M#x N#O#P#",
"k%:@!$'$o ~${$]$^$/$($_$B.v@I q@{.:$<$4$).C.+$@$#$a@ #$$%$`+&$*$=$-$;$>$,$] '$v.",
"4 6 b$c$d$e$f$g$h$N i$j$Y@t k$l$c@m$; l%}$|$! -+1$2$3$[@4$%$ +5$4 6$7$8$9$h 0$m%",
"n%z$s+`@A$B$C$P D$= g V+E$K ]$F$G$H$I$9@4 n$# o$p p$q$r$s$t$u$>#v$|@[@w$>+x$M.+%",
"o%T$O.U$V$W$X$X+`#O@Y$E.Z$i `$ %Q .%+%@%K$L$M$a$K+N$W#r$S.&+t$O$P$Q$}@k+l.R$S$;+",
"s ;+b#E$8+~%{%p%v.v@7.q%;.r%6 .@8+_%`$b s%t%m$`@K$&%N '.A#u%v%w%x%>%y%'%)%z%A%@."};
