/* XPM */
static char * C:\Users\gaeta\Desktop\code\42\so_long\img\wall_xpm[] = {
"40 39 99 2",
"  	c None",
". 	c #B8B8B8",
"+ 	c #F2F2F2",
"@ 	c #FDFDFD",
"# 	c #E2E2E2",
"$ 	c #000000",
"% 	c #B1B1B1",
"& 	c #E9E9E9",
"* 	c #F8F8F8",
"= 	c #8B8B8B",
"- 	c #BBBBBB",
"; 	c #C4C4C4",
"> 	c #DEDEDE",
", 	c #868686",
"' 	c #B4B4B4",
") 	c #D6D6D6",
"! 	c #808080",
"~ 	c #ADADAD",
"{ 	c #B5B5B5",
"] 	c #D8D8D8",
"^ 	c #7B7B7B",
"/ 	c #A6A6A6",
"( 	c #CDCDCD",
"_ 	c #979797",
": 	c #9B9B9B",
"< 	c #BABABA",
"[ 	c #939393",
"} 	c #B0B0B0",
"| 	c #6F6F6F",
"1 	c #6E6E6E",
"2 	c #858585",
"3 	c #8F8F8F",
"4 	c #6A6A6A",
"5 	c #7E7E7E",
"6 	c #0D0D0D",
"7 	c #090909",
"8 	c #060606",
"9 	c #0B0B0B",
"0 	c #050505",
"a 	c #0A0A0A",
"b 	c #F7F7F7",
"c 	c #F6F6F6",
"d 	c #D3D3D3",
"e 	c #070707",
"f 	c #E7E7E7",
"g 	c #E5E5E5",
"h 	c #A5A5A5",
"i 	c #DDDDDD",
"j 	c #CCCCCC",
"k 	c #CBCBCB",
"l 	c #E6E6E6",
"m 	c #040404",
"n 	c #8E8E8E",
"o 	c #BDBDBD",
"p 	c #DFDFDF",
"q 	c #EBEBEB",
"r 	c #B7B7B7",
"s 	c #030303",
"t 	c #A9A9A9",
"u 	c #D4D4D4",
"v 	c #757575",
"w 	c #A1A1A1",
"x 	c #A2A2A2",
"y 	c #C6C6C6",
"z 	c #C1C1C1",
"A 	c #999999",
"B 	c #D2D2D2",
"C 	c #949494",
"D 	c #747474",
"E 	c #919191",
"F 	c #737373",
"G 	c #898989",
"H 	c #6B6B6B",
"I 	c #F1F1F1",
"J 	c #EDEDED",
"K 	c #CFCFCF",
"L 	c #E4E4E4",
"M 	c #BFBFBF",
"N 	c #9E9E9E",
"O 	c #A4A4A4",
"P 	c #C3C3C3",
"Q 	c #CECECE",
"R 	c #E1E1E1",
"S 	c #797979",
"T 	c #787878",
"U 	c #A8A8A8",
"V 	c #C5C5C5",
"W 	c #A3A3A3",
"X 	c #D7D7D7",
"Y 	c #989898",
"Z 	c #C9C9C9",
"` 	c #C0C0C0",
" .	c #AAAAAA",
"..	c #9F9F9F",
"+.	c #DBDBDB",
"@.	c #7F7F7F",
"#.	c #9C9C9C",
"$.	c #7D7D7D",
"%.	c #969696",
". + @ @ @ @ @ @ @ @ @ @ @ @ @ @ @ @ # $ % & @ @ @ @ @ @ @ @ @ @ @ @ @ @ @ @ * $ ",
"= - ; ; ; ; ; ; ; ; ; ; ; ; ; ; ; > # $ , ' ; ; ; ; ; ; ; ; ; ; ; ; ; ; ; ) * $ ",
"! ~ { { { { { { { { { { { { { { { ] # $ ^ / { { { { { { { { { { { { { { { ( * $ ",
"! ~ { { { { { { { { { { { { { { { ] # $ ^ / { { { { { { { { { { { { { { { ( * $ ",
"! ~ { { { { { { { { { { { { { { { ] # $ ^ / { { { { { { { { { { { { { { { ( * $ ",
"! ~ { { { { { { { { { { { { { { { ] # $ ^ / { { { { { { { { { { { { { { { ( * $ ",
"! ~ { { { { { { { { { { { { { { { ] # $ ^ / { { { { { { { { { { { { { { { ( * $ ",
"! _ : : : : : : : : : : : : : : : < ; $ ^ [ : : : : : : : : : : : : : : : } ) $ ",
"| 1 1 1 1 1 1 1 1 1 1 1 1 1 1 1 1 2 3 $ 4 1 1 1 1 1 1 1 1 1 1 1 1 1 1 1 1 5 : $ ",
"6 6 6 6 6 6 6 6 7 $ 8 9 6 6 6 6 6 6 6 6 6 6 6 6 6 6 6 6 9 $ 0 a 6 6 6 6 6 6 6 6 ",
"b c c c c c c c d e } f c c c c c c c c c c c c c c c c g $ h i c c c c c c c c ",
"j k k k k k k l ] m n o k k k k k k k k k k k k k k k p q $ 2 { k k k k k k k k ",
"r { { { { { { > ] s 5 t { { { { { { { { { { { { { { { u q $ v w { { { { { { { { ",
"r { { { { { { > ] s 5 t { { { { { { { { { { { { { { { u q $ v w { { { { { { { { ",
"r { { { { { { > ] s 5 t { { { { { { { { { { { { { { { u q $ v w { { { { { { { { ",
"r { { { { { { > ] s 5 t { { { { { { { { { { { { { { { u q $ v w { { { { { { { { ",
"r { { { { { { > ] s 5 t { { { { { { { { { { { { { { { u q $ v w { { { { { { { { ",
"x w w w w w w y z s 5 A w w w w w w w w w w w w w w w o B $ v C w w w w w w w w ",
"v D D D D D D E 3 s F D D D D D D D D D D D D D D D D G : $ H D D D D D D D D D ",
"$ $ $ $ $ $ $ $ $ $ $ $ $ $ $ $ $ $ $ $ $ $ $ $ $ $ $ $ $ $ $ $ $ $ $ $ $ $ $ $ ",
"} f I I I I I I I I I I I I I I I I ] $ t > I I I I I I I I I I I I I I I I J $ ",
"C y K K K K K K K K K K K K K K K L # $ 3 M K K K K K K K K K K K K K K K i * $ ",
"! ~ { { { { { { { { { { { { { { { ] # $ ^ / { { { { { { { { { { { { { { { ( * $ ",
"! ~ { { { { { { { { { { { { { { { ] # $ ^ / { { { { { { { { { { { { { { { ( * $ ",
"! ~ { { { { { { { { { { { { { { { ] # $ ^ / { { { { { { { { { { { { { { { ( * $ ",
"! ~ { { { { { { { { { { { { { { { ] # $ ^ / { { { { { { { { { { { { { { { ( * $ ",
"! ~ { { { { { { { { { { { { { { { ] # $ ^ / { { { { { { { { { { { { { { { ( * $ ",
"! N O O O O O O O O O O O O O O O P Q $ ^ A O O O O O O O O O O O O O O O < R $ ",
"S T T T T T T T T T T T T T T T T E : $ D T T T T T T T T T T T T T T T T G U $ ",
"$ $ $ $ $ $ $ $ $ $ $ $ $ $ $ $ $ $ $ $ $ $ $ $ $ $ $ $ $ $ $ $ $ $ $ $ $ $ $ $ ",
"f l l l l l l l V 8 W X l l l l l l l l l l l l l l l l ) $ A Q l l l l l l l l ",
"] X X X X X X q ] 0 Y Z X X X X X X X X X X X X X X X l q $ n ` X X X X X X X X ",
"r { { { { { { > ] s 5 t { { { { { { { { { { { { { { { u q $ v w { { { { { { { { ",
"r { { { { { { > ] s 5 t { { { { { { { { { { { { { { { u q $ v w { { { { { { { { ",
"r { { { { { { > ] s 5 t { { { { { { { { { { { { { { { u q $ v w { { { { { { { { ",
"r { { { { { { > ] s 5 t { { { { { { { { { { { { { { { u q $ v w { { { { { { { { ",
"r { { { { { { > ] s 5 t { { { { { { { { { { { { { { { u q $ v w { { { { { { { { ",
" .U U U U U U K Z s 5 ..U U U U U U U U U U U U U U U V +.$ v A U U U U U U U U ",
"! @.@.@.@.@.@.N #.s $.@.@.@.@.@.@.@.@.@.@.@.@.@.@.@.@.%.t $ v @.@.@.@.@.@.@.@.@."};
